<svg height="64" viewBox="0 0 64 64" width="64" xmlns="http://www.w3.org/2000/svg"><g fill="none" fill-rule="evenodd" transform="translate(5 7)"><path d="m52 26c0-14.359-11.641-26-26-26s-26 11.641-26 26 11.641 26 26 26 26-11.641 26-26" fill="#4baadc"/><path d="m19 12h14c3.866 0 7 3.134 7 7v14c0 3.866-3.134 7-7 7h-14c-3.866 0-7-3.134-7-7v-14c0-3.866 3.134-7 7-7" fill="#fff"/><path d="m33 26c0-3.866-3.134-7-7-7s-7 3.134-7 7 3.134 7 7 7 7-3.134 7-7" fill="#a0dcf0"/><g stroke-linecap="round" stroke-linejoin="round" stroke-width="2"><path d="m52 26c0 14.359-11.641 26-26 26s-26-11.641-26-26 11.641-26 26-26 26 11.641 26 26z" stroke="#1e69a0"/><path d="m19 12h14c3.866 0 7 3.134 7 7v14c0 3.866-3.134 7-7 7h-14c-3.866 0-7-3.134-7-7v-14c0-3.866 3.134-7 7-7z" stroke="#1e69a0"/><path d="m33 26c0-3.866-3.134-7-7-7s-7 3.134-7 7 3.134 7 7 7 7-3.134 7-7z" stroke="#4baadc"/><path d="m35 18c0 .553-.448 1-1 1s-1-.447-1-1 .448-1 1-1 1 .447 1 1z" stroke="#4baadc"/></g></g></svg>